<svg width="7.625in" height="7.16666in" viewBox="0 0 7625 7167">
  <path class="fil1" d="M2365 1242c7,0 39,4 48,14 -17,3 -41,-6 -54,-13l-3 -2c3,0 6,0 9,0zm96 164c-26,14 -60,11 -87,6 -20,-4 -40,-10 -58,-20 51,-12 106,-10 145,14zm17 137c25,0 60,2 75,25l0 1c-12,5 -25,7 -38,9 -41,6 -83,6 -124,1 -20,-3 -45,-5 -70,-10 52,-15 105,-24 157,-25zm-114 213c41,-7 83,-10 125,-11 40,0 98,8 94,60 -1,1 -2,2 -3,3l-1 1c-3,1 -6,1 -13,3 -27,7 -53,6 -81,7 -48,1 -86,-10 -132,-20 -29,-7 -59,-13 -88,-23 33,-8 67,-14 99,-19zm352 318c-1,1 -3,2 -4,3 -15,8 -32,14 -49,19 -64,20 -134,30 -201,24 -83,-7 -167,-18 -247,-45 -35,-12 -80,-26 -116,-49 37,-14 76,-24 114,-33 84,-19 171,-28 258,-27 61,1 118,2 175,25 54,21 98,44 69,81zm-625 235c182,-52 383,-75 571,-55 35,4 72,9 105,24 10,5 20,11 27,21 3,4 5,9 5,15 0,2 0,4 0,7 -55,52 -145,63 -217,72 -75,9 -150,10 -226,9 -78,-1 -158,-13 -232,-38 -30,-10 -63,-20 -93,-35 20,-7 39,-13 59,-19zm818 159c-2,3 -4,6 -6,9 -4,5 -7,10 -8,15 0,1 -1,2 -1,4l-1 2 -1 2c-3,3 -5,5 -8,8 -8,7 -16,13 -25,20 -20,15 -43,26 -66,36 -44,20 -91,34 -139,41 -130,19 -260,23 -390,17 -120,-5 -254,-12 -362,-69 -29,-15 -58,-38 -64,-72 -1,-7 0,-15 1,-22 0,-1 1,-2 1,-3 4,-5 8,-9 12,-13 21,-22 46,-45 71,-62 17,-11 36,-21 54,-29 35,32 81,55 123,69 75,24 154,37 233,40 78,3 159,-1 237,-11 73,-9 159,-27 211,-83 10,-11 18,-27 25,-40 1,-1 4,-8 5,-13 5,-10 7,-21 5,-30 -5,-25 -35,-36 -56,-43 -75,-23 -160,-22 -237,-21 -92,1 -184,13 -274,29 -81,15 -164,34 -240,67 -26,-16 -50,-37 -67,-66 -13,-28 -18,-61 -11,-92 7,-32 34,-54 59,-73 19,-14 39,-26 60,-36 37,47 106,72 159,89 80,25 168,42 252,42 74,0 159,-11 224,-48 31,-18 43,-39 53,-73 9,-33 -30,-74 -58,-86 -3,-1 -5,-3 -8,-4l-2 -1 -1 0 -2 -1c-25,-12 -54,-17 -81,-22 -79,-12 -160,-8 -239,1 -86,10 -172,28 -252,61 -5,2 -9,4 -14,6 -19,-16 -34,-34 -40,-58 -2,-12 -2,-25 0,-37 4,-29 23,-49 46,-66 25,-20 54,-35 85,-47 9,5 19,10 28,14 36,16 76,29 115,37 62,13 124,22 188,16 29,-3 67,-8 87,-32 17,-20 19,-43 11,-72 -3,-37 -51,-48 -83,-49 -89,-4 -181,15 -266,39 -7,2 -14,4 -21,6 -14,-6 -28,-13 -42,-21 -18,-11 -36,-26 -46,-46 -5,-10 -6,-20 -5,-31 0,-2 1,-4 2,-6 -1,2 -3,4 -5,6 2,-3 4,-6 6,-9l-1 2c3,-4 3,-5 2,-3 4,-6 7,-13 13,-18 20,-17 43,-26 67,-36 5,-2 11,-4 16,-6 50,31 123,43 166,44 42,1 86,0 126,-16 13,-6 21,-14 29,-25 7,-7 17,-34 15,-41 2,-20 -23,-33 -39,-37 -37,-9 -79,-2 -116,4 -45,8 -93,19 -138,34 -39,-13 -73,-34 -84,-70l0 0c0,-1 0,-3 0,-4 -1,-24 10,-37 28,-51 15,-11 34,-21 54,-29 51,43 146,63 187,16 2,-2 18,-27 16,-29 -50,-34 -125,-32 -186,-11 -10,-7 -18,-15 -25,-25 -12,-16 -16,-36 -14,-56 3,-23 32,-38 51,-46 5,-2 10,-4 15,-5 21,22 74,51 94,24 7,-10 15,-21 12,-33 -4,-18 -47,-19 -61,-19 -11,0 -22,2 -33,6 -5,-5 -8,-11 -12,-17 -8,-16 -10,-35 -4,-51 6,-18 41,-50 56,-58 4,-2 2,-5 2,-6 -42,15 -93,85 -64,141 -51,26 -89,82 -62,137 4,7 9,14 15,21 -8,4 -16,8 -24,13 -42,27 -71,81 -56,127 5,20 17,37 33,50 -10,4 -20,9 -29,14 -6,3 -13,8 -19,13 -47,34 -83,107 -48,156 8,12 20,21 32,30 -46,23 -86,56 -112,104 -18,34 -23,64 -17,90 2,17 7,32 15,46 -40,22 -76,52 -100,91 -30,50 -38,103 -14,154 9,21 22,40 38,57 -21,11 -42,24 -61,39 -35,26 -79,71 -89,117 -7,21 -8,43 4,66 22,40 72,70 112,84 69,24 133,39 205,46 152,15 303,12 455,-6 55,-6 115,-27 165,-48 46,-20 93,-56 123,-97 19,-26 37,-56 46,-87 1,-2 -14,16 -16,19zm-533 -1376l1 0 -1 0z"/>
  <path class="fil1" d="M2471 1026c0,0 -107,-17 -108,-103l-5 3c0,0 -15,131 -94,115 0,0 75,44 32,134 0,0 41,-70 88,-74 47,-4 78,48 78,48 0,0 -65,-81 10,-123z"/>
</svg>